TITLE ""
FILE "LR_black_phrase_A03.mp3" MP3
  TRACK 01 AUDIO
    TITLE "LR_black_phrase_A03_001"
    INDEX 01 00:00:00
  TRACK 02 AUDIO
    TITLE "LR_black_phrase_A03_002"
    INDEX 01 00:00:10
  TRACK 03 AUDIO
    TITLE "LR_black_phrase_A03_003"
    INDEX 01 00:01:31
  TRACK 04 AUDIO
    TITLE "LR_black_phrase_A03_004"
    INDEX 01 00:01:72
  TRACK 05 AUDIO
    TITLE "LR_black_phrase_A03_005"
    INDEX 01 00:04:53
  TRACK 06 AUDIO
    TITLE "LR_black_phrase_A03_006"
    INDEX 01 00:05:55
  TRACK 07 AUDIO
    TITLE "LR_black_phrase_A03_007"
    INDEX 01 00:07:75
  TRACK 08 AUDIO
    TITLE "LR_black_phrase_A03_008"
    INDEX 01 00:08:41
  TRACK 09 AUDIO
    TITLE "LR_black_phrase_A03_009"
    INDEX 01 00:10:58
  TRACK 10 AUDIO
    TITLE "LR_black_phrase_A03_010"
    INDEX 01 00:11:12
  TRACK 11 AUDIO
    TITLE "LR_black_phrase_A03_011"
    INDEX 01 00:13:31
  TRACK 12 AUDIO
    TITLE "LR_black_phrase_A03_012"
    INDEX 01 00:14:36
  TRACK 13 AUDIO
    TITLE "LR_black_phrase_A03_013"
    INDEX 01 00:15:59
  TRACK 14 AUDIO
    TITLE "LR_black_phrase_A03_014"
    INDEX 01 00:16:25
  TRACK 15 AUDIO
    TITLE "LR_black_phrase_A03_015"
    INDEX 01 00:17:73
  TRACK 16 AUDIO
    TITLE "LR_black_phrase_A03_016"
    INDEX 01 00:18:71
  TRACK 17 AUDIO
    TITLE "LR_black_phrase_A03_017"
    INDEX 01 00:21:46
  TRACK 18 AUDIO
    TITLE "LR_black_phrase_A03_018"
    INDEX 01 00:22:12
  TRACK 19 AUDIO
    TITLE "LR_black_phrase_A03_019"
    INDEX 01 00:24:01
  TRACK 20 AUDIO
    TITLE "LR_black_phrase_A03_020"
    INDEX 01 00:24:32
  TRACK 21 AUDIO
    TITLE "LR_black_phrase_A03_021"
    INDEX 01 00:26:21
  TRACK 22 AUDIO
    TITLE "LR_black_phrase_A03_022"
    INDEX 01 00:27:27
  TRACK 23 AUDIO
    TITLE "LR_black_phrase_A03_023"
    INDEX 01 00:28:52
  TRACK 24 AUDIO
    TITLE "LR_black_phrase_A03_024"
    INDEX 01 00:29:14
  TRACK 25 AUDIO
    TITLE "LR_black_phrase_A03_025"
    INDEX 01 00:32:30
  TRACK 26 AUDIO
    TITLE "LR_black_phrase_A03_026"
    INDEX 01 00:33:29
  TRACK 27 AUDIO
    TITLE "LR_black_phrase_A03_027"
    INDEX 01 00:35:58
  TRACK 28 AUDIO
    TITLE "LR_black_phrase_A03_028"
    INDEX 01 00:36:24
  TRACK 29 AUDIO
    TITLE "LR_black_phrase_A03_029"
    INDEX 01 00:38:56
  TRACK 30 AUDIO
    TITLE "LR_black_phrase_A03_030"
    INDEX 01 00:39:12
  TRACK 31 AUDIO
    TITLE "LR_black_phrase_A03_031"
    INDEX 01 00:41:46
  TRACK 32 AUDIO
    TITLE "LR_black_phrase_A03_032"
    INDEX 01 00:42:44
  TRACK 33 AUDIO
    TITLE "LR_black_phrase_A03_033"
    INDEX 01 00:43:71
  TRACK 34 AUDIO
    TITLE "LR_black_phrase_A03_034"
    INDEX 01 00:44:31
  TRACK 35 AUDIO
    TITLE "LR_black_phrase_A03_035"
    INDEX 01 00:46:73
  TRACK 36 AUDIO
    TITLE "LR_black_phrase_A03_036"
    INDEX 01 00:47:73
  TRACK 37 AUDIO
    TITLE "LR_black_phrase_A03_037"
    INDEX 01 00:50:22
  TRACK 38 AUDIO
    TITLE "LR_black_phrase_A03_038"
    INDEX 01 00:50:63
  TRACK 39 AUDIO
    TITLE "LR_black_phrase_A03_039"
    INDEX 01 00:53:16
  TRACK 40 AUDIO
    TITLE "LR_black_phrase_A03_040"
    INDEX 01 00:53:48
  TRACK 41 AUDIO
    TITLE "LR_black_phrase_A03_041"
    INDEX 01 00:56:03
  TRACK 42 AUDIO
    TITLE "LR_black_phrase_A03_042"
    INDEX 01 00:57:06
  TRACK 43 AUDIO
    TITLE "LR_black_phrase_A03_043"
    INDEX 01 00:58:19
  TRACK 44 AUDIO
    TITLE "LR_black_phrase_A03_044"
    INDEX 01 00:58:61
  TRACK 45 AUDIO
    TITLE "LR_black_phrase_A03_045"
    INDEX 01 01:00:16
  TRACK 46 AUDIO
    TITLE "LR_black_phrase_A03_046"
    INDEX 01 01:01:14
  TRACK 47 AUDIO
    TITLE "LR_black_phrase_A03_047"
    INDEX 01 01:04:22
  TRACK 48 AUDIO
    TITLE "LR_black_phrase_A03_048"
    INDEX 01 01:04:55
  TRACK 49 AUDIO
    TITLE "LR_black_phrase_A03_049"
    INDEX 01 01:07:26
  TRACK 50 AUDIO
    TITLE "LR_black_phrase_A03_050"
    INDEX 01 01:07:46
  TRACK 51 AUDIO
    TITLE "LR_black_phrase_A03_051"
    INDEX 01 01:10:17
  TRACK 52 AUDIO
    TITLE "LR_black_phrase_A03_052"
    INDEX 01 01:11:10
  TRACK 53 AUDIO
    TITLE "LR_black_phrase_A03_053"
    INDEX 01 01:12:24
  TRACK 54 AUDIO
    TITLE "LR_black_phrase_A03_054"
    INDEX 01 01:12:67
  TRACK 55 AUDIO
    TITLE "LR_black_phrase_A03_055"
    INDEX 01 01:14:56
  TRACK 56 AUDIO
    TITLE "LR_black_phrase_A03_056"
    INDEX 01 01:15:53
  TRACK 57 AUDIO
    TITLE "LR_black_phrase_A03_057"
    INDEX 01 01:18:08
  TRACK 58 AUDIO
    TITLE "LR_black_phrase_A03_058"
    INDEX 01 01:18:48
  TRACK 59 AUDIO
    TITLE "LR_black_phrase_A03_059"
    INDEX 01 01:20:66
  TRACK 60 AUDIO
    TITLE "LR_black_phrase_A03_060"
    INDEX 01 01:21:30
  TRACK 61 AUDIO
    TITLE "LR_black_phrase_A03_061"
    INDEX 01 01:23:49
  TRACK 62 AUDIO
    TITLE "LR_black_phrase_A03_062"
    INDEX 01 01:24:64
  TRACK 63 AUDIO
    TITLE "LR_black_phrase_A03_063"
    INDEX 01 01:26:12
  TRACK 64 AUDIO
    TITLE "LR_black_phrase_A03_064"
    INDEX 01 01:26:53
  TRACK 65 AUDIO
    TITLE "LR_black_phrase_A03_065"
    INDEX 01 01:30:37
  TRACK 66 AUDIO
    TITLE "LR_black_phrase_A03_066"
    INDEX 01 01:31:37
  TRACK 67 AUDIO
    TITLE "LR_black_phrase_A03_067"
    INDEX 01 01:33:63
  TRACK 68 AUDIO
    TITLE "LR_black_phrase_A03_068"
    INDEX 01 01:34:25
  TRACK 69 AUDIO
    TITLE "LR_black_phrase_A03_069"
    INDEX 01 01:36:38
  TRACK 70 AUDIO
    TITLE "LR_black_phrase_A03_070"
    INDEX 01 01:36:67
  TRACK 71 AUDIO
    TITLE "LR_black_phrase_A03_071"
    INDEX 01 01:38:72
  TRACK 72 AUDIO
    TITLE "LR_black_phrase_A03_072"
    INDEX 01 01:40:10
  TRACK 73 AUDIO
    TITLE "LR_black_phrase_A03_073"
    INDEX 01 01:41:49
  TRACK 74 AUDIO
    TITLE "LR_black_phrase_A03_074"
    INDEX 01 01:42:15
  TRACK 75 AUDIO
    TITLE "LR_black_phrase_A03_075"
    INDEX 01 01:45:07
  TRACK 76 AUDIO
    TITLE "LR_black_phrase_A03_076"
    INDEX 01 01:46:05
  TRACK 77 AUDIO
    TITLE "LR_black_phrase_A03_077"
    INDEX 01 01:47:75
  TRACK 78 AUDIO
    TITLE "LR_black_phrase_A03_078"
    INDEX 01 01:48:37
  TRACK 79 AUDIO
    TITLE "LR_black_phrase_A03_079"
    INDEX 01 01:50:34
  TRACK 80 AUDIO
    TITLE "LR_black_phrase_A03_080"
    INDEX 01 01:50:65
  TRACK 81 AUDIO
    TITLE "LR_black_phrase_A03_081"
    INDEX 01 01:52:62
  TRACK 82 AUDIO
    TITLE "LR_black_phrase_A03_082"
    INDEX 01 01:53:68
  TRACK 83 AUDIO
    TITLE "LR_black_phrase_A03_083"
    INDEX 01 01:55:19
  TRACK 84 AUDIO
    TITLE "LR_black_phrase_A03_084"
    INDEX 01 01:55:63
  TRACK 85 AUDIO
    TITLE "LR_black_phrase_A03_085"
    INDEX 01 01:58:24
  TRACK 86 AUDIO
    TITLE "LR_black_phrase_A03_086"
    INDEX 01 01:59:15
  TRACK 87 AUDIO
    TITLE "LR_black_phrase_A03_087"
    INDEX 01 02:00:62
  TRACK 88 AUDIO
    TITLE "LR_black_phrase_A03_088"
    INDEX 01 02:01:24
  TRACK 89 AUDIO
    TITLE "LR_black_phrase_A03_089"
    INDEX 01 02:03:19
  TRACK 90 AUDIO
    TITLE "LR_black_phrase_A03_090"
    INDEX 01 02:03:46
  TRACK 91 AUDIO
    TITLE "LR_black_phrase_A03_091"
    INDEX 01 02:05:41
  TRACK 92 AUDIO
    TITLE "LR_black_phrase_A03_092"
    INDEX 01 02:06:37
  TRACK 93 AUDIO
    TITLE "LR_black_phrase_A03_093"
    INDEX 01 02:07:60
  TRACK 94 AUDIO
    TITLE "LR_black_phrase_A03_094"
    INDEX 01 02:08:20
  TRACK 95 AUDIO
    TITLE "LR_black_phrase_A03_095"
    INDEX 01 02:10:72
  TRACK 96 AUDIO
    TITLE "LR_black_phrase_A03_096"
    INDEX 01 02:11:71
  TRACK 97 AUDIO
    TITLE "LR_black_phrase_A03_097"
    INDEX 01 02:13:47
  TRACK 98 AUDIO
    TITLE "LR_black_phrase_A03_098"
    INDEX 01 02:14:03
  TRACK 99 AUDIO
    TITLE "LR_black_phrase_A03_099"
    INDEX 01 02:15:52
  TRACK 100 AUDIO
    TITLE "LR_black_phrase_A03_100"
    INDEX 01 02:15:65
  TRACK 101 AUDIO
    TITLE "LR_black_phrase_A03_101"
    INDEX 01 02:17:39
  TRACK 102 AUDIO
    TITLE "LR_black_phrase_A03_102"
    INDEX 01 02:18:38
  TRACK 103 AUDIO
    TITLE "LR_black_phrase_A03_103"
    INDEX 01 02:19:63
  TRACK 104 AUDIO
    TITLE "LR_black_phrase_A03_104"
    INDEX 01 02:20:27
  TRACK 105 AUDIO
    TITLE "LR_black_phrase_A03_105"
    INDEX 01 02:22:57
  TRACK 106 AUDIO
    TITLE "LR_black_phrase_A03_106"
    INDEX 01 02:23:55
  TRACK 107 AUDIO
    TITLE "LR_black_phrase_A03_107"
    INDEX 01 02:25:34
  TRACK 108 AUDIO
    TITLE "LR_black_phrase_A03_108"
    INDEX 01 02:25:73
  TRACK 109 AUDIO
    TITLE "LR_black_phrase_A03_109"
    INDEX 01 02:27:72
  TRACK 110 AUDIO
    TITLE "LR_black_phrase_A03_110"
    INDEX 01 02:28:25
  TRACK 111 AUDIO
    TITLE "LR_black_phrase_A03_111"
    INDEX 01 02:30:24
  TRACK 112 AUDIO
    TITLE "LR_black_phrase_A03_112"
    INDEX 01 02:31:29
  TRACK 113 AUDIO
    TITLE "LR_black_phrase_A03_113"
    INDEX 01 02:32:54
  TRACK 114 AUDIO
    TITLE "LR_black_phrase_A03_114"
    INDEX 01 02:33:18
  TRACK 115 AUDIO
    TITLE "LR_black_phrase_A03_115"
    INDEX 01 02:35:42
  TRACK 116 AUDIO
    TITLE "LR_black_phrase_A03_116"
    INDEX 01 02:36:44
  TRACK 117 AUDIO
    TITLE "LR_black_phrase_A03_117"
    INDEX 01 02:38:02
  TRACK 118 AUDIO
    TITLE "LR_black_phrase_A03_118"
    INDEX 01 02:38:39
  TRACK 119 AUDIO
    TITLE "LR_black_phrase_A03_119"
    INDEX 01 02:40:22
  TRACK 120 AUDIO
    TITLE "LR_black_phrase_A03_120"
    INDEX 01 02:40:44
  TRACK 121 AUDIO
    TITLE "LR_black_phrase_A03_121"
    INDEX 01 02:42:29
  TRACK 122 AUDIO
    TITLE "LR_black_phrase_A03_122"
    INDEX 01 02:43:32
  TRACK 123 AUDIO
    TITLE "LR_black_phrase_A03_123"
    INDEX 01 02:44:51
  TRACK 124 AUDIO
    TITLE "LR_black_phrase_A03_124"
    INDEX 01 02:45:17
  TRACK 125 AUDIO
    TITLE "LR_black_phrase_A03_125"
    INDEX 01 02:46:46
  TRACK 126 AUDIO
    TITLE "LR_black_phrase_A03_126"
    INDEX 01 02:47:44
  TRACK 127 AUDIO
    TITLE "LR_black_phrase_A03_127"
    INDEX 01 02:49:43
  TRACK 128 AUDIO
    TITLE "LR_black_phrase_A03_128"
    INDEX 01 02:50:09
  TRACK 129 AUDIO
    TITLE "LR_black_phrase_A03_129"
    INDEX 01 02:52:25
  TRACK 130 AUDIO
    TITLE "LR_black_phrase_A03_130"
    INDEX 01 02:52:55
  TRACK 131 AUDIO
    TITLE "LR_black_phrase_A03_131"
    INDEX 01 02:54:73
  TRACK 132 AUDIO
    TITLE "LR_black_phrase_A03_132"
    INDEX 01 02:56:01
  TRACK 133 AUDIO
    TITLE "LR_black_phrase_A03_133"
    INDEX 01 02:57:09
  TRACK 134 AUDIO
    TITLE "LR_black_phrase_A03_134"
    INDEX 01 02:57:48
  TRACK 135 AUDIO
    TITLE "LR_black_phrase_A03_135"
    INDEX 01 02:59:53
  TRACK 136 AUDIO
    TITLE "LR_black_phrase_A03_136"
    INDEX 01 03:00:52
  TRACK 137 AUDIO
    TITLE "LR_black_phrase_A03_137"
    INDEX 01 03:02:18
  TRACK 138 AUDIO
    TITLE "LR_black_phrase_A03_138"
    INDEX 01 03:02:55
  TRACK 139 AUDIO
    TITLE "LR_black_phrase_A03_139"
    INDEX 01 03:04:24
  TRACK 140 AUDIO
    TITLE "LR_black_phrase_A03_140"
    INDEX 01 03:04:50
  TRACK 141 AUDIO
    TITLE "LR_black_phrase_A03_141"
    INDEX 01 03:06:18
  TRACK 142 AUDIO
    TITLE "LR_black_phrase_A03_142"
    INDEX 01 03:07:19
  TRACK 143 AUDIO
    TITLE "LR_black_phrase_A03_143"
    INDEX 01 03:08:50
  TRACK 144 AUDIO
    TITLE "LR_black_phrase_A03_144"
    INDEX 01 03:09:14
  TRACK 145 AUDIO
    TITLE "LR_black_phrase_A03_145"
    INDEX 01 03:11:50
  TRACK 146 AUDIO
    TITLE "LR_black_phrase_A03_146"
    INDEX 01 03:12:48
  TRACK 147 AUDIO
    TITLE "LR_black_phrase_A03_147"
    INDEX 01 03:14:21
  TRACK 148 AUDIO
    TITLE "LR_black_phrase_A03_148"
    INDEX 01 03:14:60
  TRACK 149 AUDIO
    TITLE "LR_black_phrase_A03_149"
    INDEX 01 03:16:47
  TRACK 150 AUDIO
    TITLE "LR_black_phrase_A03_150"
    INDEX 01 03:17:04
  TRACK 151 AUDIO
    TITLE "LR_black_phrase_A03_151"
    INDEX 01 03:18:64
  TRACK 152 AUDIO
    TITLE "LR_black_phrase_A03_152"
    INDEX 01 03:19:63
  TRACK 153 AUDIO
    TITLE "LR_black_phrase_A03_153"
    INDEX 01 03:21:29
  TRACK 154 AUDIO
    TITLE "LR_black_phrase_A03_154"
    INDEX 01 03:21:68
  TRACK 155 AUDIO
    TITLE "LR_black_phrase_A03_155"
    INDEX 01 03:25:05
  TRACK 156 AUDIO
    TITLE "LR_black_phrase_A03_156"
    INDEX 01 03:26:07
  TRACK 157 AUDIO
    TITLE "LR_black_phrase_A03_157"
    INDEX 01 03:28:47
  TRACK 158 AUDIO
    TITLE "LR_black_phrase_A03_158"
    INDEX 01 03:29:05
  TRACK 159 AUDIO
    TITLE "LR_black_phrase_A03_159"
    INDEX 01 03:31:66
  TRACK 160 AUDIO
    TITLE "LR_black_phrase_A03_160"
    INDEX 01 03:32:13
  TRACK 161 AUDIO
    TITLE "LR_black_phrase_A03_161"
    INDEX 01 03:34:75
  TRACK 162 AUDIO
    TITLE "LR_black_phrase_A03_162"
    INDEX 01 03:35:70
  TRACK 163 AUDIO
    TITLE "LR_black_phrase_A03_163"
    INDEX 01 03:37:18
  TRACK 164 AUDIO
    TITLE "LR_black_phrase_A03_164"
    INDEX 01 03:37:53
  TRACK 165 AUDIO
    TITLE "LR_black_phrase_A03_165"
    INDEX 01 03:39:68
  TRACK 166 AUDIO
    TITLE "LR_black_phrase_A03_166"
    INDEX 01 03:40:69
  TRACK 167 AUDIO
    TITLE "LR_black_phrase_A03_167"
    INDEX 01 03:42:23
  TRACK 168 AUDIO
    TITLE "LR_black_phrase_A03_168"
    INDEX 01 03:42:58
  TRACK 169 AUDIO
    TITLE "LR_black_phrase_A03_169"
    INDEX 01 03:44:73
  TRACK 170 AUDIO
    TITLE "LR_black_phrase_A03_170"
    INDEX 01 03:45:18
  TRACK 171 AUDIO
    TITLE "LR_black_phrase_A03_171"
    INDEX 01 03:47:34
  TRACK 172 AUDIO
    TITLE "LR_black_phrase_A03_172"
    INDEX 01 03:48:28
  TRACK 173 AUDIO
    TITLE "LR_black_phrase_A03_173"
    INDEX 01 03:49:57
  TRACK 174 AUDIO
    TITLE "LR_black_phrase_A03_174"
    INDEX 01 03:50:17
  TRACK 175 AUDIO
    TITLE "LR_black_phrase_A03_175"
    INDEX 01 03:52:33
  TRACK 176 AUDIO
    TITLE "LR_black_phrase_A03_176"
    INDEX 01 03:53:33
  TRACK 177 AUDIO
    TITLE "LR_black_phrase_A03_177"
    INDEX 01 03:54:58
  TRACK 178 AUDIO
    TITLE "LR_black_phrase_A03_178"
    INDEX 01 03:55:14
  TRACK 179 AUDIO
    TITLE "LR_black_phrase_A03_179"
    INDEX 01 03:57:15
  TRACK 180 AUDIO
    TITLE "LR_black_phrase_A03_180"
    INDEX 01 03:57:38
  TRACK 181 AUDIO
    TITLE "LR_black_phrase_A03_181"
    INDEX 01 03:59:37
  TRACK 182 AUDIO
    TITLE "LR_black_phrase_A03_182"
    INDEX 01 04:00:41
  TRACK 183 AUDIO
    TITLE "LR_black_phrase_A03_183"
    INDEX 01 04:02:02
  TRACK 184 AUDIO
    TITLE "LR_black_phrase_A03_184"
    INDEX 01 04:02:42
  TRACK 185 AUDIO
    TITLE "LR_black_phrase_A03_185"
    INDEX 01 04:05:46
  TRACK 186 AUDIO
    TITLE "LR_black_phrase_A03_186"
    INDEX 01 04:06:45
  TRACK 187 AUDIO
    TITLE "LR_black_phrase_A03_187"
    INDEX 01 04:08:72
  TRACK 188 AUDIO
    TITLE "LR_black_phrase_A03_188"
    INDEX 01 04:09:36
  TRACK 189 AUDIO
    TITLE "LR_black_phrase_A03_189"
    INDEX 01 04:12:09
  TRACK 190 AUDIO
    TITLE "LR_black_phrase_A03_190"
    INDEX 01 04:12:40
  TRACK 191 AUDIO
    TITLE "LR_black_phrase_A03_191"
    INDEX 01 04:15:15
  TRACK 192 AUDIO
    TITLE "LR_black_phrase_A03_192"
    INDEX 01 04:16:22
  TRACK 193 AUDIO
    TITLE "LR_black_phrase_A03_193"
    INDEX 01 04:17:35
  TRACK 194 AUDIO
    TITLE "LR_black_phrase_A03_194"
    INDEX 01 04:17:74
  TRACK 195 AUDIO
    TITLE "LR_black_phrase_A03_195"
    INDEX 01 04:19:36
  TRACK 196 AUDIO
    TITLE "LR_black_phrase_A03_196"
    INDEX 01 04:20:36
  TRACK 197 AUDIO
    TITLE "LR_black_phrase_A03_197"
    INDEX 01 04:22:44
  TRACK 198 AUDIO
    TITLE "LR_black_phrase_A03_198"
    INDEX 01 04:23:06
  TRACK 199 AUDIO
    TITLE "LR_black_phrase_A03_199"
    INDEX 01 04:25:11
  TRACK 200 AUDIO
    TITLE "LR_black_phrase_A03_200"
    INDEX 01 04:25:41
  TRACK 201 AUDIO
    TITLE "LR_black_phrase_A03_201"
    INDEX 01 04:27:43
  TRACK 202 AUDIO
    TITLE "LR_black_phrase_A03_202"
    INDEX 01 04:28:47
  TRACK 203 AUDIO
    TITLE "LR_black_phrase_A03_203"
    INDEX 01 04:30:03
  TRACK 204 AUDIO
    TITLE "LR_black_phrase_A03_204"
    INDEX 01 04:30:42
  TRACK 205 AUDIO
    TITLE "LR_black_phrase_A03_205"
    INDEX 01 04:31:71
  TRACK 206 AUDIO
    TITLE "LR_black_phrase_A03_206"
    INDEX 01 04:32:72
  TRACK 207 AUDIO
    TITLE "LR_black_phrase_A03_207"
    INDEX 01 04:34:63
  TRACK 208 AUDIO
    TITLE "LR_black_phrase_A03_208"
    INDEX 01 04:35:27
  TRACK 209 AUDIO
    TITLE "LR_black_phrase_A03_209"
    INDEX 01 04:37:22
  TRACK 210 AUDIO
    TITLE "LR_black_phrase_A03_210"
    INDEX 01 04:37:52
  TRACK 211 AUDIO
    TITLE "LR_black_phrase_A03_211"
    INDEX 01 04:39:49
  TRACK 212 AUDIO
    TITLE "LR_black_phrase_A03_212"
    INDEX 01 04:40:50
  TRACK 213 AUDIO
    TITLE "LR_black_phrase_A03_213"
    INDEX 01 04:41:73
  TRACK 214 AUDIO
    TITLE "LR_black_phrase_A03_214"
    INDEX 01 04:42:35
  TRACK 215 AUDIO
    TITLE "LR_black_phrase_A03_215"
    INDEX 01 04:45:61
  TRACK 216 AUDIO
    TITLE "LR_black_phrase_A03_216"
    INDEX 01 04:46:60
  TRACK 217 AUDIO
    TITLE "LR_black_phrase_A03_217"
    INDEX 01 04:48:65
  TRACK 218 AUDIO
    TITLE "LR_black_phrase_A03_218"
    INDEX 01 04:49:21
  TRACK 219 AUDIO
    TITLE "LR_black_phrase_A03_219"
    INDEX 01 04:52:14
  TRACK 220 AUDIO
    TITLE "LR_black_phrase_A03_220"
    INDEX 01 04:52:36
  TRACK 221 AUDIO
    TITLE "LR_black_phrase_A03_221"
    INDEX 01 04:55:26
  TRACK 222 AUDIO
    TITLE "LR_black_phrase_A03_222"
    INDEX 01 04:56:22
  TRACK 223 AUDIO
    TITLE "LR_black_phrase_A03_223"
    INDEX 01 04:57:35
  TRACK 224 AUDIO
    TITLE "LR_black_phrase_A03_224"
    INDEX 01 04:57:74
  TRACK 225 AUDIO
    TITLE "LR_black_phrase_A03_225"
    INDEX 01 05:00:59
  TRACK 226 AUDIO
    TITLE "LR_black_phrase_A03_226"
    INDEX 01 05:01:60
  TRACK 227 AUDIO
    TITLE "LR_black_phrase_A03_227"
    INDEX 01 05:04:15
  TRACK 228 AUDIO
    TITLE "LR_black_phrase_A03_228"
    INDEX 01 05:04:50
  TRACK 229 AUDIO
    TITLE "LR_black_phrase_A03_229"
    INDEX 01 05:07:31
  TRACK 230 AUDIO
    TITLE "LR_black_phrase_A03_230"
    INDEX 01 05:07:55
  TRACK 231 AUDIO
    TITLE "LR_black_phrase_A03_231"
    INDEX 01 05:10:37
  TRACK 232 AUDIO
    TITLE "LR_black_phrase_A03_232"
    INDEX 01 05:11:35
  TRACK 233 AUDIO
    TITLE "LR_black_phrase_A03_233"
    INDEX 01 05:12:46
  TRACK 234 AUDIO
    TITLE "LR_black_phrase_A03_234"
    INDEX 01 05:13:06
  TRACK 235 AUDIO
    TITLE "LR_black_phrase_A03_235"
    INDEX 01 05:15:50
  TRACK 236 AUDIO
    TITLE "LR_black_phrase_A03_236"
    INDEX 01 05:16:48
  TRACK 237 AUDIO
    TITLE "LR_black_phrase_A03_237"
    INDEX 01 05:19:13
  TRACK 238 AUDIO
    TITLE "LR_black_phrase_A03_238"
    INDEX 01 05:19:48
  TRACK 239 AUDIO
    TITLE "LR_black_phrase_A03_239"
    INDEX 01 05:22:13
  TRACK 240 AUDIO
    TITLE "LR_black_phrase_A03_240"
    INDEX 01 05:22:41
  TRACK 241 AUDIO
    TITLE "LR_black_phrase_A03_241"
    INDEX 01 05:25:06
  TRACK 242 AUDIO
    TITLE "LR_black_phrase_A03_242"
    INDEX 01 05:26:13
  TRACK 243 AUDIO
    TITLE "LR_black_phrase_A03_243"
    INDEX 01 05:27:12
  TRACK 244 AUDIO
    TITLE "LR_black_phrase_A03_244"
    INDEX 01 05:27:53
  TRACK 245 AUDIO
    TITLE "LR_black_phrase_A03_245"
    INDEX 01 05:30:07
  TRACK 246 AUDIO
    TITLE "LR_black_phrase_A03_246"
    INDEX 01 05:31:08
  TRACK 247 AUDIO
    TITLE "LR_black_phrase_A03_247"
    INDEX 01 05:33:44
  TRACK 248 AUDIO
    TITLE "LR_black_phrase_A03_248"
    INDEX 01 05:34:10
  TRACK 249 AUDIO
    TITLE "LR_black_phrase_A03_249"
    INDEX 01 05:36:25
  TRACK 250 AUDIO
    TITLE "LR_black_phrase_A03_250"
    INDEX 01 05:36:60
  TRACK 251 AUDIO
    TITLE "LR_black_phrase_A03_251"
    INDEX 01 05:38:75
  TRACK 252 AUDIO
    TITLE "LR_black_phrase_A03_252"
    INDEX 01 05:40:05
  TRACK 253 AUDIO
    TITLE "LR_black_phrase_A03_253"
    INDEX 01 05:41:26
  TRACK 254 AUDIO
    TITLE "LR_black_phrase_A03_254"
    INDEX 01 05:41:65
  TRACK 255 AUDIO
    TITLE "LR_black_phrase_A03_255"
    INDEX 01 05:44:26
  TRACK 256 AUDIO
    TITLE "LR_black_phrase_A03_256"
    INDEX 01 05:45:24
  TRACK 257 AUDIO
    TITLE "LR_black_phrase_A03_257"
    INDEX 01 05:47:68
  TRACK 258 AUDIO
    TITLE "LR_black_phrase_A03_258"
    INDEX 01 05:48:32
  TRACK 259 AUDIO
    TITLE "LR_black_phrase_A03_259"
    INDEX 01 05:51:07
  TRACK 260 AUDIO
    TITLE "LR_black_phrase_A03_260"
    INDEX 01 05:51:36
  TRACK 261 AUDIO
    TITLE "LR_black_phrase_A03_261"
    INDEX 01 05:54:09
  TRACK 262 AUDIO
    TITLE "LR_black_phrase_A03_262"
    INDEX 01 05:55:13
  TRACK 263 AUDIO
    TITLE "LR_black_phrase_A03_263"
    INDEX 01 05:56:30
  TRACK 264 AUDIO
    TITLE "LR_black_phrase_A03_264"
    INDEX 01 05:56:71
  TRACK 265 AUDIO
    TITLE "LR_black_phrase_A03_265"
    INDEX 01 05:58:19
  TRACK 266 AUDIO
    TITLE "LR_black_phrase_A03_266"
    INDEX 01 05:59:16
  TRACK 267 AUDIO
    TITLE "LR_black_phrase_A03_267"
    INDEX 01 06:02:24
  TRACK 268 AUDIO
    TITLE "LR_black_phrase_A03_268"
    INDEX 01 06:02:62
  TRACK 269 AUDIO
    TITLE "LR_black_phrase_A03_269"
    INDEX 01 06:05:50
  TRACK 270 AUDIO
    TITLE "LR_black_phrase_A03_270"
    INDEX 01 06:06:06
  TRACK 271 AUDIO
    TITLE "LR_black_phrase_A03_271"
    INDEX 01 06:08:72
  TRACK 272 AUDIO
    TITLE "LR_black_phrase_A03_272"
    INDEX 01 06:09:71
  TRACK 273 AUDIO
    TITLE "LR_black_phrase_A03_273"
    INDEX 01 06:11:10
  TRACK 274 AUDIO
    TITLE "LR_black_phrase_A03_274"
    INDEX 01 06:11:51
  TRACK 275 AUDIO
    TITLE "LR_black_phrase_A03_275"
    INDEX 01 06:13:18
  TRACK 276 AUDIO
    TITLE "LR_black_phrase_A03_276"
    INDEX 01 06:14:18
  TRACK 277 AUDIO
    TITLE "LR_black_phrase_A03_277"
    INDEX 01 06:17:06
  TRACK 278 AUDIO
    TITLE "LR_black_phrase_A03_278"
    INDEX 01 06:17:47
  TRACK 279 AUDIO
    TITLE "LR_black_phrase_A03_279"
    INDEX 01 06:20:48
  TRACK 280 AUDIO
    TITLE "LR_black_phrase_A03_280"
    INDEX 01 06:20:71
  TRACK 281 AUDIO
    TITLE "LR_black_phrase_A03_281"
    INDEX 01 06:23:72
  TRACK 282 AUDIO
    TITLE "LR_black_phrase_A03_282"
    INDEX 01 06:24:67
  TRACK 283 AUDIO
    TITLE "LR_black_phrase_A03_283"
    INDEX 01 06:26:23
  TRACK 284 AUDIO
    TITLE "LR_black_phrase_A03_284"
    INDEX 01 06:26:58
  TRACK 285 AUDIO
    TITLE "LR_black_phrase_A03_285"
    INDEX 01 06:29:17
  TRACK 286 AUDIO
    TITLE "LR_black_phrase_A03_286"
    INDEX 01 06:30:21
  TRACK 287 AUDIO
    TITLE "LR_black_phrase_A03_287"
    INDEX 01 06:32:22
  TRACK 288 AUDIO
    TITLE "LR_black_phrase_A03_288"
    INDEX 01 06:32:57
  TRACK 289 AUDIO
    TITLE "LR_black_phrase_A03_289"
    INDEX 01 06:35:12
  TRACK 290 AUDIO
    TITLE "LR_black_phrase_A03_290"
    INDEX 01 06:35:32
  TRACK 291 AUDIO
    TITLE "LR_black_phrase_A03_291"
    INDEX 01 06:37:64
  TRACK 292 AUDIO
    TITLE "LR_black_phrase_A03_292"
    INDEX 01 06:38:57
  TRACK 293 AUDIO
    TITLE "LR_black_phrase_A03_293"
    INDEX 01 06:39:69
  TRACK 294 AUDIO
    TITLE "LR_black_phrase_A03_294"
    INDEX 01 06:40:29
  TRACK 295 AUDIO
    TITLE "LR_black_phrase_A03_295"
    INDEX 01 06:43:08
  TRACK 296 AUDIO
    TITLE "LR_black_phrase_A03_296"
    INDEX 01 06:44:01
  TRACK 297 AUDIO
    TITLE "LR_black_phrase_A03_297"
    INDEX 01 06:45:67
  TRACK 298 AUDIO
    TITLE "LR_black_phrase_A03_298"
    INDEX 01 06:46:26
  TRACK 299 AUDIO
    TITLE "LR_black_phrase_A03_299"
    INDEX 01 06:47:70
  TRACK 300 AUDIO
    TITLE "LR_black_phrase_A03_300"
    INDEX 01 06:48:17
  TRACK 301 AUDIO
    TITLE "LR_black_phrase_A03_301"
    INDEX 01 06:49:63
